<?xml version='1.0' encoding='utf-8'?>
<svg xmlns="http://www.w3.org/2000/svg" width="1330" height="848" viewBox="0 0 1330 848"><text x="40" y="76" fill="#1C1C1C" style="font-family:DejaVu Sans, Arial; font-size:36px; font-weight:700;" text-anchor="start">Project Status — </text><text x="40" y="115" fill="#1C1C1C" style="font-family:DejaVu Sans, Arial; font-size:22px; font-weight:400;" text-anchor="start">ML model &amp; datasets</text><rect x="490" y="93" width="720" height="28" rx="8" ry="8" fill="#E6E6E6" stroke="#CCCCCC" /><rect x="490" y="93" width="720" height="28" rx="8" ry="8" fill="#00B4D8" /><text x="1222" y="115" fill="#1C1C1C" style="font-family:DejaVu Sans, Arial; font-size:20px; font-weight:700;" text-anchor="start">100%</text><text x="40" y="137" fill="#3A3A3A" style="font-family:DejaVu Sans, Arial; font-size:16px; font-weight:400;" text-anchor="start">Subset-solver MLP trained; winners selected</text><text x="40" y="181" fill="#1C1C1C" style="font-family:DejaVu Sans, Arial; font-size:22px; font-weight:400;" text-anchor="start">ONNX partitioning &amp; optimizations</text><rect x="490" y="159" width="720" height="28" rx="8" ry="8" fill="#E6E6E6" stroke="#CCCCCC" /><rect x="490" y="159" width="720" height="28" rx="8" ry="8" fill="#00B4D8" /><text x="1222" y="181" fill="#1C1C1C" style="font-family:DejaVu Sans, Arial; font-size:20px; font-weight:700;" text-anchor="start">100%</text><text x="40" y="203" fill="#3A3A3A" style="font-family:DejaVu Sans, Arial; font-size:16px; font-weight:400;" text-anchor="start">Embed/solver/output blocks split; </text><text x="40" y="247" fill="#1C1C1C" style="font-family:DejaVu Sans, Arial; font-size:22px; font-weight:400;" text-anchor="start">AIE-ML dense kernels</text><rect x="490" y="225" width="720" height="28" rx="8" ry="8" fill="#E6E6E6" stroke="#CCCCCC" /><rect x="490" y="225" width="720" height="28" rx="8" ry="8" fill="#00B4D8" /><text x="1222" y="247" fill="#1C1C1C" style="font-family:DejaVu Sans, Arial; font-size:20px; font-weight:700;" text-anchor="start">100%</text><text x="40" y="269" fill="#3A3A3A" style="font-family:DejaVu Sans, Arial; font-size:16px; font-weight:400;" text-anchor="start">8×128, 128×128 cascades; aiesim throughput</text><text x="40" y="313" fill="#1C1C1C" style="font-family:DejaVu Sans, Arial; font-size:22px; font-weight:400;" text-anchor="start">PL kernels &amp; packetization</text><rect x="490" y="291" width="720" height="28" rx="8" ry="8" fill="#E6E6E6" stroke="#CCCCCC" /><rect x="490" y="291" width="720" height="28" rx="8" ry="8" fill="#00B4D8" /><text x="1222" y="313" fill="#1C1C1C" style="font-family:DejaVu Sans, Arial; font-size:20px; font-weight:700;" text-anchor="start">100%</text><text x="40" y="335" fill="#3A3A3A" style="font-family:DejaVu Sans, Arial; font-size:16px; font-weight:400;" text-anchor="start">LeakyReLU, mm2s/s2mm, demux/switch implemented</text><text x="40" y="379" fill="#1C1C1C" style="font-family:DejaVu Sans, Arial; font-size:22px; font-weight:400;" text-anchor="start">Component simulations</text><rect x="490" y="357" width="720" height="28" rx="8" ry="8" fill="#E6E6E6" stroke="#CCCCCC" /><rect x="490" y="357" width="720" height="28" rx="8" ry="8" fill="#00B4D8" /><text x="1222" y="379" fill="#1C1C1C" style="font-family:DejaVu Sans, Arial; font-size:20px; font-weight:700;" text-anchor="start">100%</text><text x="40" y="401" fill="#3A3A3A" style="font-family:DejaVu Sans, Arial; font-size:16px; font-weight:400;" text-anchor="start">HLS C-sim/aiesim/hw_emu validated per-block</text><text x="40" y="445" fill="#1C1C1C" style="font-family:DejaVu Sans, Arial; font-size:22px; font-weight:400;" text-anchor="start">PS/host orchestration</text><rect x="490" y="423" width="720" height="28" rx="8" ry="8" fill="#E6E6E6" stroke="#CCCCCC" /><rect x="490" y="423" width="503" height="28" rx="8" ry="8" fill="#00B4D8" /><text x="1222" y="445" fill="#1C1C1C" style="font-family:DejaVu Sans, Arial; font-size:20px; font-weight:700;" text-anchor="start">70%</text><text x="40" y="467" fill="#3A3A3A" style="font-family:DejaVu Sans, Arial; font-size:16px; font-weight:400;" text-anchor="start">Weight pre-load &amp; control path operational</text><text x="40" y="511" fill="#1C1C1C" style="font-family:DejaVu Sans, Arial; font-size:22px; font-weight:400;" text-anchor="start">Full-system bring-up (VEK280)</text><rect x="490" y="489" width="720" height="28" rx="8" ry="8" fill="#E6E6E6" stroke="#CCCCCC" /><rect x="490" y="489" width="396" height="28" rx="8" ry="8" fill="#00B4D8" /><text x="1222" y="511" fill="#1C1C1C" style="font-family:DejaVu Sans, Arial; font-size:20px; font-weight:700;" text-anchor="start">55%</text><text x="40" y="533" fill="#3A3A3A" style="font-family:DejaVu Sans, Arial; font-size:16px; font-weight:400;" text-anchor="start">Full system link, package</text><text x="40" y="577" fill="#1C1C1C" style="font-family:DejaVu Sans, Arial; font-size:22px; font-weight:400;" text-anchor="start">Validation &amp; benchmarking</text><rect x="490" y="555" width="720" height="28" rx="8" ry="8" fill="#E6E6E6" stroke="#CCCCCC" /><rect x="490" y="555" width="216" height="28" rx="8" ry="8" fill="#00B4D8" /><text x="1222" y="577" fill="#1C1C1C" style="font-family:DejaVu Sans, Arial; font-size:20px; font-weight:700;" text-anchor="start">30%</text><text x="40" y="599" fill="#3A3A3A" style="font-family:DejaVu Sans, Arial; font-size:16px; font-weight:400;" text-anchor="start">Latency/II/power/accuracy sweeps pending</text><text x="40" y="643" fill="#1C1C1C" style="font-family:DejaVu Sans, Arial; font-size:22px; font-weight:400;" text-anchor="start">Performance Tuning</text><rect x="490" y="621" width="720" height="28" rx="8" ry="8" fill="#E6E6E6" stroke="#CCCCCC" /><line x1="490" y1="621" x2="482" y2="649" stroke="#CFCFCF" stroke-width="1" /><line x1="500" y1="621" x2="492" y2="649" stroke="#CFCFCF" stroke-width="1" /><line x1="510" y1="621" x2="502" y2="649" stroke="#CFCFCF" stroke-width="1" /><line x1="520" y1="621" x2="512" y2="649" stroke="#CFCFCF" stroke-width="1" /><line x1="530" y1="621" x2="522" y2="649" stroke="#CFCFCF" stroke-width="1" /><line x1="540" y1="621" x2="532" y2="649" stroke="#CFCFCF" stroke-width="1" /><line x1="550" y1="621" x2="542" y2="649" stroke="#CFCFCF" stroke-width="1" /><line x1="560" y1="621" x2="552" y2="649" stroke="#CFCFCF" stroke-width="1" /><line x1="570" y1="621" x2="562" y2="649" stroke="#CFCFCF" stroke-width="1" /><line x1="580" y1="621" x2="572" y2="649" stroke="#CFCFCF" stroke-width="1" /><line x1="590" y1="621" x2="582" y2="649" stroke="#CFCFCF" stroke-width="1" /><line x1="600" y1="621" x2="592" y2="649" stroke="#CFCFCF" stroke-width="1" /><line x1="610" y1="621" x2="602" y2="649" stroke="#CFCFCF" stroke-width="1" /><line x1="620" y1="621" x2="612" y2="649" stroke="#CFCFCF" stroke-width="1" /><line x1="630" y1="621" x2="622" y2="649" stroke="#CFCFCF" stroke-width="1" /><line x1="640" y1="621" x2="632" y2="649" stroke="#CFCFCF" stroke-width="1" /><line x1="650" y1="621" x2="642" y2="649" stroke="#CFCFCF" stroke-width="1" /><line x1="660" y1="621" x2="652" y2="649" stroke="#CFCFCF" stroke-width="1" /><line x1="670" y1="621" x2="662" y2="649" stroke="#CFCFCF" stroke-width="1" /><line x1="680" y1="621" x2="672" y2="649" stroke="#CFCFCF" stroke-width="1" /><line x1="690" y1="621" x2="682" y2="649" stroke="#CFCFCF" stroke-width="1" /><line x1="700" y1="621" x2="692" y2="649" stroke="#CFCFCF" stroke-width="1" /><line x1="710" y1="621" x2="702" y2="649" stroke="#CFCFCF" stroke-width="1" /><line x1="720" y1="621" x2="712" y2="649" stroke="#CFCFCF" stroke-width="1" /><line x1="730" y1="621" x2="722" y2="649" stroke="#CFCFCF" stroke-width="1" /><line x1="740" y1="621" x2="732" y2="649" stroke="#CFCFCF" stroke-width="1" /><line x1="750" y1="621" x2="742" y2="649" stroke="#CFCFCF" stroke-width="1" /><line x1="760" y1="621" x2="752" y2="649" stroke="#CFCFCF" stroke-width="1" /><line x1="770" y1="621" x2="762" y2="649" stroke="#CFCFCF" stroke-width="1" /><line x1="780" y1="621" x2="772" y2="649" stroke="#CFCFCF" stroke-width="1" /><line x1="790" y1="621" x2="782" y2="649" stroke="#CFCFCF" stroke-width="1" /><line x1="800" y1="621" x2="792" y2="649" stroke="#CFCFCF" stroke-width="1" /><line x1="810" y1="621" x2="802" y2="649" stroke="#CFCFCF" stroke-width="1" /><line x1="820" y1="621" x2="812" y2="649" stroke="#CFCFCF" stroke-width="1" /><line x1="830" y1="621" x2="822" y2="649" stroke="#CFCFCF" stroke-width="1" /><line x1="840" y1="621" x2="832" y2="649" stroke="#CFCFCF" stroke-width="1" /><line x1="850" y1="621" x2="842" y2="649" stroke="#CFCFCF" stroke-width="1" /><line x1="860" y1="621" x2="852" y2="649" stroke="#CFCFCF" stroke-width="1" /><line x1="870" y1="621" x2="862" y2="649" stroke="#CFCFCF" stroke-width="1" /><line x1="880" y1="621" x2="872" y2="649" stroke="#CFCFCF" stroke-width="1" /><line x1="890" y1="621" x2="882" y2="649" stroke="#CFCFCF" stroke-width="1" /><line x1="900" y1="621" x2="892" y2="649" stroke="#CFCFCF" stroke-width="1" /><line x1="910" y1="621" x2="902" y2="649" stroke="#CFCFCF" stroke-width="1" /><line x1="920" y1="621" x2="912" y2="649" stroke="#CFCFCF" stroke-width="1" /><line x1="930" y1="621" x2="922" y2="649" stroke="#CFCFCF" stroke-width="1" /><line x1="940" y1="621" x2="932" y2="649" stroke="#CFCFCF" stroke-width="1" /><line x1="950" y1="621" x2="942" y2="649" stroke="#CFCFCF" stroke-width="1" /><line x1="960" y1="621" x2="952" y2="649" stroke="#CFCFCF" stroke-width="1" /><line x1="970" y1="621" x2="962" y2="649" stroke="#CFCFCF" stroke-width="1" /><line x1="980" y1="621" x2="972" y2="649" stroke="#CFCFCF" stroke-width="1" /><line x1="990" y1="621" x2="982" y2="649" stroke="#CFCFCF" stroke-width="1" /><line x1="1000" y1="621" x2="992" y2="649" stroke="#CFCFCF" stroke-width="1" /><line x1="1010" y1="621" x2="1002" y2="649" stroke="#CFCFCF" stroke-width="1" /><line x1="1020" y1="621" x2="1012" y2="649" stroke="#CFCFCF" stroke-width="1" /><line x1="1030" y1="621" x2="1022" y2="649" stroke="#CFCFCF" stroke-width="1" /><line x1="1040" y1="621" x2="1032" y2="649" stroke="#CFCFCF" stroke-width="1" /><line x1="1050" y1="621" x2="1042" y2="649" stroke="#CFCFCF" stroke-width="1" /><line x1="1060" y1="621" x2="1052" y2="649" stroke="#CFCFCF" stroke-width="1" /><line x1="1070" y1="621" x2="1062" y2="649" stroke="#CFCFCF" stroke-width="1" /><line x1="1080" y1="621" x2="1072" y2="649" stroke="#CFCFCF" stroke-width="1" /><line x1="1090" y1="621" x2="1082" y2="649" stroke="#CFCFCF" stroke-width="1" /><line x1="1100" y1="621" x2="1092" y2="649" stroke="#CFCFCF" stroke-width="1" /><line x1="1110" y1="621" x2="1102" y2="649" stroke="#CFCFCF" stroke-width="1" /><line x1="1120" y1="621" x2="1112" y2="649" stroke="#CFCFCF" stroke-width="1" /><line x1="1130" y1="621" x2="1122" y2="649" stroke="#CFCFCF" stroke-width="1" /><line x1="1140" y1="621" x2="1132" y2="649" stroke="#CFCFCF" stroke-width="1" /><line x1="1150" y1="621" x2="1142" y2="649" stroke="#CFCFCF" stroke-width="1" /><line x1="1160" y1="621" x2="1152" y2="649" stroke="#CFCFCF" stroke-width="1" /><line x1="1170" y1="621" x2="1162" y2="649" stroke="#CFCFCF" stroke-width="1" /><line x1="1180" y1="621" x2="1172" y2="649" stroke="#CFCFCF" stroke-width="1" /><line x1="1190" y1="621" x2="1182" y2="649" stroke="#CFCFCF" stroke-width="1" /><line x1="1200" y1="621" x2="1192" y2="649" stroke="#CFCFCF" stroke-width="1" /><line x1="1210" y1="621" x2="1202" y2="649" stroke="#CFCFCF" stroke-width="1" /><text x="1222" y="643" fill="#1C1C1C" style="font-family:DejaVu Sans, Arial; font-size:20px; font-weight:700;" text-anchor="start">—</text><text x="40" y="665" fill="#3A3A3A" style="font-family:DejaVu Sans, Arial; font-size:16px; font-weight:400;" text-anchor="start">Reduced precision, data shuffling, GMEM</text><text x="40" y="709" fill="#1C1C1C" style="font-family:DejaVu Sans, Arial; font-size:22px; font-weight:400;" text-anchor="start">Reduced precision (fp32→fp16/fixed)</text><rect x="490" y="687" width="720" height="28" rx="8" ry="8" fill="#E6E6E6" stroke="#CCCCCC" /><line x1="490" y1="687" x2="482" y2="715" stroke="#CFCFCF" stroke-width="1" /><line x1="500" y1="687" x2="492" y2="715" stroke="#CFCFCF" stroke-width="1" /><line x1="510" y1="687" x2="502" y2="715" stroke="#CFCFCF" stroke-width="1" /><line x1="520" y1="687" x2="512" y2="715" stroke="#CFCFCF" stroke-width="1" /><line x1="530" y1="687" x2="522" y2="715" stroke="#CFCFCF" stroke-width="1" /><line x1="540" y1="687" x2="532" y2="715" stroke="#CFCFCF" stroke-width="1" /><line x1="550" y1="687" x2="542" y2="715" stroke="#CFCFCF" stroke-width="1" /><line x1="560" y1="687" x2="552" y2="715" stroke="#CFCFCF" stroke-width="1" /><line x1="570" y1="687" x2="562" y2="715" stroke="#CFCFCF" stroke-width="1" /><line x1="580" y1="687" x2="572" y2="715" stroke="#CFCFCF" stroke-width="1" /><line x1="590" y1="687" x2="582" y2="715" stroke="#CFCFCF" stroke-width="1" /><line x1="600" y1="687" x2="592" y2="715" stroke="#CFCFCF" stroke-width="1" /><line x1="610" y1="687" x2="602" y2="715" stroke="#CFCFCF" stroke-width="1" /><line x1="620" y1="687" x2="612" y2="715" stroke="#CFCFCF" stroke-width="1" /><line x1="630" y1="687" x2="622" y2="715" stroke="#CFCFCF" stroke-width="1" /><line x1="640" y1="687" x2="632" y2="715" stroke="#CFCFCF" stroke-width="1" /><line x1="650" y1="687" x2="642" y2="715" stroke="#CFCFCF" stroke-width="1" /><line x1="660" y1="687" x2="652" y2="715" stroke="#CFCFCF" stroke-width="1" /><line x1="670" y1="687" x2="662" y2="715" stroke="#CFCFCF" stroke-width="1" /><line x1="680" y1="687" x2="672" y2="715" stroke="#CFCFCF" stroke-width="1" /><line x1="690" y1="687" x2="682" y2="715" stroke="#CFCFCF" stroke-width="1" /><line x1="700" y1="687" x2="692" y2="715" stroke="#CFCFCF" stroke-width="1" /><line x1="710" y1="687" x2="702" y2="715" stroke="#CFCFCF" stroke-width="1" /><line x1="720" y1="687" x2="712" y2="715" stroke="#CFCFCF" stroke-width="1" /><line x1="730" y1="687" x2="722" y2="715" stroke="#CFCFCF" stroke-width="1" /><line x1="740" y1="687" x2="732" y2="715" stroke="#CFCFCF" stroke-width="1" /><line x1="750" y1="687" x2="742" y2="715" stroke="#CFCFCF" stroke-width="1" /><line x1="760" y1="687" x2="752" y2="715" stroke="#CFCFCF" stroke-width="1" /><line x1="770" y1="687" x2="762" y2="715" stroke="#CFCFCF" stroke-width="1" /><line x1="780" y1="687" x2="772" y2="715" stroke="#CFCFCF" stroke-width="1" /><line x1="790" y1="687" x2="782" y2="715" stroke="#CFCFCF" stroke-width="1" /><line x1="800" y1="687" x2="792" y2="715" stroke="#CFCFCF" stroke-width="1" /><line x1="810" y1="687" x2="802" y2="715" stroke="#CFCFCF" stroke-width="1" /><line x1="820" y1="687" x2="812" y2="715" stroke="#CFCFCF" stroke-width="1" /><line x1="830" y1="687" x2="822" y2="715" stroke="#CFCFCF" stroke-width="1" /><line x1="840" y1="687" x2="832" y2="715" stroke="#CFCFCF" stroke-width="1" /><line x1="850" y1="687" x2="842" y2="715" stroke="#CFCFCF" stroke-width="1" /><line x1="860" y1="687" x2="852" y2="715" stroke="#CFCFCF" stroke-width="1" /><line x1="870" y1="687" x2="862" y2="715" stroke="#CFCFCF" stroke-width="1" /><line x1="880" y1="687" x2="872" y2="715" stroke="#CFCFCF" stroke-width="1" /><line x1="890" y1="687" x2="882" y2="715" stroke="#CFCFCF" stroke-width="1" /><line x1="900" y1="687" x2="892" y2="715" stroke="#CFCFCF" stroke-width="1" /><line x1="910" y1="687" x2="902" y2="715" stroke="#CFCFCF" stroke-width="1" /><line x1="920" y1="687" x2="912" y2="715" stroke="#CFCFCF" stroke-width="1" /><line x1="930" y1="687" x2="922" y2="715" stroke="#CFCFCF" stroke-width="1" /><line x1="940" y1="687" x2="932" y2="715" stroke="#CFCFCF" stroke-width="1" /><line x1="950" y1="687" x2="942" y2="715" stroke="#CFCFCF" stroke-width="1" /><line x1="960" y1="687" x2="952" y2="715" stroke="#CFCFCF" stroke-width="1" /><line x1="970" y1="687" x2="962" y2="715" stroke="#CFCFCF" stroke-width="1" /><line x1="980" y1="687" x2="972" y2="715" stroke="#CFCFCF" stroke-width="1" /><line x1="990" y1="687" x2="982" y2="715" stroke="#CFCFCF" stroke-width="1" /><line x1="1000" y1="687" x2="992" y2="715" stroke="#CFCFCF" stroke-width="1" /><line x1="1010" y1="687" x2="1002" y2="715" stroke="#CFCFCF" stroke-width="1" /><line x1="1020" y1="687" x2="1012" y2="715" stroke="#CFCFCF" stroke-width="1" /><line x1="1030" y1="687" x2="1022" y2="715" stroke="#CFCFCF" stroke-width="1" /><line x1="1040" y1="687" x2="1032" y2="715" stroke="#CFCFCF" stroke-width="1" /><line x1="1050" y1="687" x2="1042" y2="715" stroke="#CFCFCF" stroke-width="1" /><line x1="1060" y1="687" x2="1052" y2="715" stroke="#CFCFCF" stroke-width="1" /><line x1="1070" y1="687" x2="1062" y2="715" stroke="#CFCFCF" stroke-width="1" /><line x1="1080" y1="687" x2="1072" y2="715" stroke="#CFCFCF" stroke-width="1" /><line x1="1090" y1="687" x2="1082" y2="715" stroke="#CFCFCF" stroke-width="1" /><line x1="1100" y1="687" x2="1092" y2="715" stroke="#CFCFCF" stroke-width="1" /><line x1="1110" y1="687" x2="1102" y2="715" stroke="#CFCFCF" stroke-width="1" /><line x1="1120" y1="687" x2="1112" y2="715" stroke="#CFCFCF" stroke-width="1" /><line x1="1130" y1="687" x2="1122" y2="715" stroke="#CFCFCF" stroke-width="1" /><line x1="1140" y1="687" x2="1132" y2="715" stroke="#CFCFCF" stroke-width="1" /><line x1="1150" y1="687" x2="1142" y2="715" stroke="#CFCFCF" stroke-width="1" /><line x1="1160" y1="687" x2="1152" y2="715" stroke="#CFCFCF" stroke-width="1" /><line x1="1170" y1="687" x2="1162" y2="715" stroke="#CFCFCF" stroke-width="1" /><line x1="1180" y1="687" x2="1172" y2="715" stroke="#CFCFCF" stroke-width="1" /><line x1="1190" y1="687" x2="1182" y2="715" stroke="#CFCFCF" stroke-width="1" /><line x1="1200" y1="687" x2="1192" y2="715" stroke="#CFCFCF" stroke-width="1" /><line x1="1210" y1="687" x2="1202" y2="715" stroke="#CFCFCF" stroke-width="1" /><text x="1222" y="709" fill="#1C1C1C" style="font-family:DejaVu Sans, Arial; font-size:20px; font-weight:700;" text-anchor="start">—</text><text x="40" y="731" fill="#3A3A3A" style="font-family:DejaVu Sans, Arial; font-size:16px; font-weight:400;" text-anchor="start">TBD</text><text x="40" y="775" fill="#1C1C1C" style="font-family:DejaVu Sans, Arial; font-size:22px; font-weight:400;" text-anchor="start">Dosumentation for community</text><rect x="490" y="753" width="720" height="28" rx="8" ry="8" fill="#E6E6E6" stroke="#CCCCCC" /><line x1="490" y1="753" x2="482" y2="781" stroke="#CFCFCF" stroke-width="1" /><line x1="500" y1="753" x2="492" y2="781" stroke="#CFCFCF" stroke-width="1" /><line x1="510" y1="753" x2="502" y2="781" stroke="#CFCFCF" stroke-width="1" /><line x1="520" y1="753" x2="512" y2="781" stroke="#CFCFCF" stroke-width="1" /><line x1="530" y1="753" x2="522" y2="781" stroke="#CFCFCF" stroke-width="1" /><line x1="540" y1="753" x2="532" y2="781" stroke="#CFCFCF" stroke-width="1" /><line x1="550" y1="753" x2="542" y2="781" stroke="#CFCFCF" stroke-width="1" /><line x1="560" y1="753" x2="552" y2="781" stroke="#CFCFCF" stroke-width="1" /><line x1="570" y1="753" x2="562" y2="781" stroke="#CFCFCF" stroke-width="1" /><line x1="580" y1="753" x2="572" y2="781" stroke="#CFCFCF" stroke-width="1" /><line x1="590" y1="753" x2="582" y2="781" stroke="#CFCFCF" stroke-width="1" /><line x1="600" y1="753" x2="592" y2="781" stroke="#CFCFCF" stroke-width="1" /><line x1="610" y1="753" x2="602" y2="781" stroke="#CFCFCF" stroke-width="1" /><line x1="620" y1="753" x2="612" y2="781" stroke="#CFCFCF" stroke-width="1" /><line x1="630" y1="753" x2="622" y2="781" stroke="#CFCFCF" stroke-width="1" /><line x1="640" y1="753" x2="632" y2="781" stroke="#CFCFCF" stroke-width="1" /><line x1="650" y1="753" x2="642" y2="781" stroke="#CFCFCF" stroke-width="1" /><line x1="660" y1="753" x2="652" y2="781" stroke="#CFCFCF" stroke-width="1" /><line x1="670" y1="753" x2="662" y2="781" stroke="#CFCFCF" stroke-width="1" /><line x1="680" y1="753" x2="672" y2="781" stroke="#CFCFCF" stroke-width="1" /><line x1="690" y1="753" x2="682" y2="781" stroke="#CFCFCF" stroke-width="1" /><line x1="700" y1="753" x2="692" y2="781" stroke="#CFCFCF" stroke-width="1" /><line x1="710" y1="753" x2="702" y2="781" stroke="#CFCFCF" stroke-width="1" /><line x1="720" y1="753" x2="712" y2="781" stroke="#CFCFCF" stroke-width="1" /><line x1="730" y1="753" x2="722" y2="781" stroke="#CFCFCF" stroke-width="1" /><line x1="740" y1="753" x2="732" y2="781" stroke="#CFCFCF" stroke-width="1" /><line x1="750" y1="753" x2="742" y2="781" stroke="#CFCFCF" stroke-width="1" /><line x1="760" y1="753" x2="752" y2="781" stroke="#CFCFCF" stroke-width="1" /><line x1="770" y1="753" x2="762" y2="781" stroke="#CFCFCF" stroke-width="1" /><line x1="780" y1="753" x2="772" y2="781" stroke="#CFCFCF" stroke-width="1" /><line x1="790" y1="753" x2="782" y2="781" stroke="#CFCFCF" stroke-width="1" /><line x1="800" y1="753" x2="792" y2="781" stroke="#CFCFCF" stroke-width="1" /><line x1="810" y1="753" x2="802" y2="781" stroke="#CFCFCF" stroke-width="1" /><line x1="820" y1="753" x2="812" y2="781" stroke="#CFCFCF" stroke-width="1" /><line x1="830" y1="753" x2="822" y2="781" stroke="#CFCFCF" stroke-width="1" /><line x1="840" y1="753" x2="832" y2="781" stroke="#CFCFCF" stroke-width="1" /><line x1="850" y1="753" x2="842" y2="781" stroke="#CFCFCF" stroke-width="1" /><line x1="860" y1="753" x2="852" y2="781" stroke="#CFCFCF" stroke-width="1" /><line x1="870" y1="753" x2="862" y2="781" stroke="#CFCFCF" stroke-width="1" /><line x1="880" y1="753" x2="872" y2="781" stroke="#CFCFCF" stroke-width="1" /><line x1="890" y1="753" x2="882" y2="781" stroke="#CFCFCF" stroke-width="1" /><line x1="900" y1="753" x2="892" y2="781" stroke="#CFCFCF" stroke-width="1" /><line x1="910" y1="753" x2="902" y2="781" stroke="#CFCFCF" stroke-width="1" /><line x1="920" y1="753" x2="912" y2="781" stroke="#CFCFCF" stroke-width="1" /><line x1="930" y1="753" x2="922" y2="781" stroke="#CFCFCF" stroke-width="1" /><line x1="940" y1="753" x2="932" y2="781" stroke="#CFCFCF" stroke-width="1" /><line x1="950" y1="753" x2="942" y2="781" stroke="#CFCFCF" stroke-width="1" /><line x1="960" y1="753" x2="952" y2="781" stroke="#CFCFCF" stroke-width="1" /><line x1="970" y1="753" x2="962" y2="781" stroke="#CFCFCF" stroke-width="1" /><line x1="980" y1="753" x2="972" y2="781" stroke="#CFCFCF" stroke-width="1" /><line x1="990" y1="753" x2="982" y2="781" stroke="#CFCFCF" stroke-width="1" /><line x1="1000" y1="753" x2="992" y2="781" stroke="#CFCFCF" stroke-width="1" /><line x1="1010" y1="753" x2="1002" y2="781" stroke="#CFCFCF" stroke-width="1" /><line x1="1020" y1="753" x2="1012" y2="781" stroke="#CFCFCF" stroke-width="1" /><line x1="1030" y1="753" x2="1022" y2="781" stroke="#CFCFCF" stroke-width="1" /><line x1="1040" y1="753" x2="1032" y2="781" stroke="#CFCFCF" stroke-width="1" /><line x1="1050" y1="753" x2="1042" y2="781" stroke="#CFCFCF" stroke-width="1" /><line x1="1060" y1="753" x2="1052" y2="781" stroke="#CFCFCF" stroke-width="1" /><line x1="1070" y1="753" x2="1062" y2="781" stroke="#CFCFCF" stroke-width="1" /><line x1="1080" y1="753" x2="1072" y2="781" stroke="#CFCFCF" stroke-width="1" /><line x1="1090" y1="753" x2="1082" y2="781" stroke="#CFCFCF" stroke-width="1" /><line x1="1100" y1="753" x2="1092" y2="781" stroke="#CFCFCF" stroke-width="1" /><line x1="1110" y1="753" x2="1102" y2="781" stroke="#CFCFCF" stroke-width="1" /><line x1="1120" y1="753" x2="1112" y2="781" stroke="#CFCFCF" stroke-width="1" /><line x1="1130" y1="753" x2="1122" y2="781" stroke="#CFCFCF" stroke-width="1" /><line x1="1140" y1="753" x2="1132" y2="781" stroke="#CFCFCF" stroke-width="1" /><line x1="1150" y1="753" x2="1142" y2="781" stroke="#CFCFCF" stroke-width="1" /><line x1="1160" y1="753" x2="1152" y2="781" stroke="#CFCFCF" stroke-width="1" /><line x1="1170" y1="753" x2="1162" y2="781" stroke="#CFCFCF" stroke-width="1" /><line x1="1180" y1="753" x2="1172" y2="781" stroke="#CFCFCF" stroke-width="1" /><line x1="1190" y1="753" x2="1182" y2="781" stroke="#CFCFCF" stroke-width="1" /><line x1="1200" y1="753" x2="1192" y2="781" stroke="#CFCFCF" stroke-width="1" /><line x1="1210" y1="753" x2="1202" y2="781" stroke="#CFCFCF" stroke-width="1" /><text x="1222" y="775" fill="#1C1C1C" style="font-family:DejaVu Sans, Arial; font-size:20px; font-weight:700;" text-anchor="start">—</text><text x="40" y="797" fill="#3A3A3A" style="font-family:DejaVu Sans, Arial; font-size:16px; font-weight:400;" text-anchor="start">TBD</text></svg>